<?xml version="1.0" encoding="UTF-8"?>
<svg id="Layer_1" data-name="Layer 1" xmlns="http://www.w3.org/2000/svg" viewBox="0 0 303.46 372.01">
  <defs>
    <style>
      .cls-1 {
        fill: #fff;
      }

      .cls-2 {
        fill: #3e2417;
        stroke: #2a2a2a;
        stroke-miterlimit: 10;
      }
    </style>
  </defs>
  <path class="cls-2" d="M302.51.5c2.16,45.68-2.34,88.54-38.48,120.03-29.37,25.59-57.88,26.26-94.98,27.02-32.46.67-82.53-5.86-110.57,9.43-31.66,17.27-31.32,42.97-32.03,74.98-.8,35.82,2.8,52.61.85,98.04,0,0,0,.05,0,.05-.27,4.96-.42,9.75-.69,14.71,1.34.19,2.06.14,3.89.14v-96.9c0-36.26,44.59-73.87,80.46-71.54l122.55.04c-.29,54.61-33.92,100.82-86.24,116.27-23.78,7.02-43.45,4.96-57.57,29.43-8.95,15.5-6.47,24.13-7.15,40.84-.12,3.07-1.93,5.52-.05,8.46H.5V89.01C2.17,40.86,37.77,3.62,86.01.51c72.17,0,144.33,0,216.5-.01"/>
  <path d="M276.5,27.51H81c-24.24,0-53.71,32.21-53.48,56.52l-.51,63.49c8.1-6.35,16.37-12.83,25.82-17.18,56.02-25.8,146.3,10.28,191.68-27.32,22.58-18.7,31.74-46.7,31.99-75.51Z"/>
  <path d="M203.5,202.51h-94.5c-24.82,0-52.5,25.42-52.5,50.5v87.5l3.28-16.22c13.53-38.25,37.21-45.58,72.73-54.27,35.91-8.79,61.89-30.82,70.99-67.51Z"/>
  <path class="cls-1" d="M276.5,27.51c-.24,28.81-9.41,56.81-31.99,75.51-45.38,37.6-135.66,1.51-191.68,27.32-9.44,4.35-17.72,10.83-25.82,17.18l.51-63.49c-.22-24.31,29.25-56.52,53.48-56.52h195.5Z"/>
  <path class="cls-1" d="M203.5,202.51c-9.1,36.69-35.08,58.72-70.99,67.51-35.52,8.7-59.2,16.03-72.73,54.27l-3.28,16.22v-87.5c0-25.08,27.68-50.5,52.5-50.5h94.5Z"/>
</svg>